# xmcd CD database file
#
# Track frame offsets:
#	150
#	11882
#	24997
#	38757
#	51837
#	66952
#	78047
#	90837
#	105082
#	118167
#	133112
#	147882
#	160885
#	174755
#	187925
#	202660
#	217715
#	229602
#	242177
#	253635
#
# Disc length: 3575 seconds
#
# Revision: 0
# Processed by: cddbd v1.4PL0 Copyright (c) Steve Scherf et al.
# Submitted via: CDex 1.50
#
DISCID=f00df514
DTITLE=Stephan Grappelli - Essential
DYEAR=1900
DGENRE=Jazz
TTITLE0=I'Have Hound A New Baby
TTITLE1=My Sweet
TTITLE2=After You've Gone
TTITLE3=It Had To Be You
TTITLE4=Improvisation sur le premier mouvement du Concerto en ré mineur de J.S. Bach
TTITLE5=Dinah
TTITLE6=Alabamy Bound
TTITLE7=Solitude
TTITLE8=Ain't Misbehavin'
TTITLE9=When I Look A You
TTITLE10=Stephen's Blues
TTITLE11=Charleston
TTITLE12=Sugar
TTITLE13=Runnin' Wild
TTITLE14=Out Of Nowhere
TTITLE15=Liebestraum n° 3
TTITLE16=Babay
TTITLE17=Echoes Of france
TTITLE18=Oui, pour vous revoir
TTITLE19=Nuages
EXTD=
EXTT0=
EXTT1=
EXTT2=
EXTT3=
EXTT4=
EXTT5=
EXTT6=
EXTT7=
EXTT8=
EXTT9=
EXTT10=
EXTT11=
EXTT12=
EXTT13=
EXTT14=
EXTT15=
EXTT16=
EXTT17=
EXTT18=
EXTT19=
PLAYORDER=
